<svg width="126" height="298" viewBox="0 0 126 298" fill="none" xmlns="http://www.w3.org/2000/svg">
<path d="M77.3182 104.545H116.239V204.261C116.191 213.731 113.8 222.064 109.065 229.261C104.378 236.411 97.8911 241.998 89.6051 246.023C81.3665 250 71.8731 251.989 61.125 251.989C51.7973 251.989 43.2746 250.379 35.5568 247.159C27.839 243.892 21.6837 238.778 17.0909 231.818C12.4981 224.811 10.2254 215.72 10.2727 204.545H49.7614C49.9034 208.191 50.5189 211.269 51.608 213.778C52.7443 216.288 54.3068 218.182 56.2955 219.46C58.3314 220.691 60.7936 221.307 63.6818 221.307C66.6174 221.307 69.0795 220.668 71.0682 219.389C73.1042 218.111 74.643 216.217 75.6847 213.707C76.7263 211.151 77.2708 208.002 77.3182 204.261V104.545Z" fill="#752E2E"/>
<path d="M48.6818 193.455H9.76136V93.7386C9.80871 84.2689 12.1998 75.9356 16.9347 68.7386C21.6222 61.589 28.1089 56.0019 36.3949 51.9773C44.6335 48 54.1269 46.0114 64.875 46.0114C74.2027 46.0114 82.7254 47.6212 90.4432 50.8409C98.161 54.108 104.316 59.2216 108.909 66.1818C113.502 73.1894 115.775 82.2803 115.727 93.4545H76.2386C76.0966 89.8087 75.4811 86.7311 74.392 84.2216C73.2557 81.7121 71.6932 79.8182 69.7045 78.5398C67.6686 77.3087 65.2064 76.6932 62.3182 76.6932C59.3826 76.6932 56.9205 77.3324 54.9318 78.6108C52.8958 79.8892 51.357 81.7831 50.3153 84.2926C49.2737 86.8494 48.7292 89.9981 48.6818 93.7386V193.455Z" fill="#752E2E"/>
</svg>
